<?xml version="1.0" encoding="UTF-8" standalone="no"?>
<!-- Created with Inkscape (http://www.inkscape.org/) -->
<svg
   xmlns:svg="http://www.w3.org/2000/svg"
   xmlns="http://www.w3.org/2000/svg"
   version="1.0"
   width="33"
   height="33"
   viewBox="0 0 140.8 140.8"
   id="svg2">
  <style
     type="text/css"
     id="style4" />
  <defs
     id="defs6" />
  <path
     d="M 124.13406,76.800172 C 124.13406,110.01139 97.211048,136.9344 63.99983,136.9344 C 30.788612,136.9344 3.8655992,110.01139 3.8656001,76.800172 C 3.8655992,43.588962 30.788612,16.665942 63.99983,16.665942 C 97.211048,16.665942 124.13406,43.588962 124.13406,76.800172 z "
     style="opacity:0.5;fill:#000000;fill-opacity:1;stroke:#000000;stroke-width:7.73120022;stroke-linecap:butt;stroke-linejoin:miter;stroke-miterlimit:4;stroke-dasharray:none;stroke-opacity:0.87843137"
     id="path10024" />
  <path
     d="M 136.93423,64.000002 C 136.93423,97.211222 110.01122,124.13423 76.8,124.13423 C 43.588782,124.13423 16.66577,97.211222 16.665771,64.000002 C 16.66577,30.788792 43.588782,3.8657722 76.8,3.8657722 C 110.01122,3.8657722 136.93423,30.788792 136.93423,64.000002 z "
     style="fill:#ffffff;fill-opacity:1;stroke:#ff0000;stroke-width:7.73154449;stroke-linecap:butt;stroke-linejoin:miter;stroke-miterlimit:4;stroke-dasharray:none;stroke-opacity:1"
     id="path2218" />
  <path
     d="M 53.943467,24.410272 L 76.800607,64.000002"
     style="fill:none;fill-rule:evenodd;stroke:#e0e0e0;stroke-width:8.53333378;stroke-linecap:round;stroke-linejoin:round;stroke-miterlimit:4;stroke-dasharray:none;stroke-opacity:1"
     id="path7082" />
  <path
     d="M 76.799997,18.285712 L 76.799997,64.000002"
     style="fill:none;fill-rule:evenodd;stroke:#bfbfbf;stroke-width:8.53333378;stroke-linecap:round;stroke-linejoin:round;stroke-miterlimit:4;stroke-dasharray:none;stroke-opacity:1"
     id="path8059" />
  <path
     d="M 99.657147,24.410272 L 76.799997,64.000002"
     style="fill:none;fill-rule:evenodd;stroke:#808080;stroke-width:8.53333378;stroke-linecap:round;stroke-linejoin:round;stroke-miterlimit:4;stroke-dasharray:none;stroke-opacity:1"
     id="path8061" />
  <path
     d="M 46.596267,46.560852 L 76.800887,64.000002 L 116.38973,41.142872"
     style="fill:none;fill-rule:evenodd;stroke:#000000;stroke-width:8.53333378;stroke-linecap:round;stroke-linejoin:round;stroke-miterlimit:4;stroke-opacity:1"
     id="path8063" />
</svg>
